<svg width="193" height="48" viewBox="0 0 193 48" fill="none" xmlns="http://www.w3.org/2000/svg">
<path d="M46.0831 24.6245C46.0831 37.353 35.7622 47.6641 23.0399 47.6641C10.3149 47.6641 0 37.353 0 24.6245C0 11.8994 10.3149 1.58105 23.0399 1.58105C35.7622 1.58105 46.0831 11.8994 46.0831 24.6245Z" fill="#FF1864"/>
<path d="M21.2352 26.8869L23.1799 21.1152L25.0002 26.881C24.3504 26.9158 23.6982 26.9331 23.0428 26.9331C22.4378 26.9331 21.8345 26.9158 21.2352 26.8869V26.8869ZM25.1081 12.8564H20.9783L13.0547 34.633H18.6524L19.7236 31.3915L19.7733 31.2461C20.8537 31.3303 21.9424 31.3775 23.0428 31.3775C24.1648 31.3775 25.2767 31.3278 26.3779 31.2428L26.4216 31.3915L27.4287 34.633H33.0261L25.1081 12.8564V12.8564Z" fill="#FEFEFE"/>
<path d="M30.5604 11.0629H26.2158L30.2112 0H34.5555L30.5604 11.0629Z" fill="#FEFEFE"/>
<path d="M61.4669 3C63.5176 3 65.086 3.49117 66.1724 4.473C67.2585 5.45483 67.8019 6.93672 67.8019 8.91769V17.0773H64.7254V15.3829C64.3257 15.9912 63.7566 16.4559 63.018 16.7775C62.2794 17.0991 61.3886 17.26 60.3459 17.26C59.3031 17.26 58.3907 17.0818 57.6086 16.7256C56.8265 16.3692 56.2228 15.8738 55.7967 15.2395C55.371 14.605 55.1582 13.8884 55.1582 13.0887C55.1582 11.8375 55.6229 10.8339 56.5528 10.0777C57.4828 9.32183 58.9471 8.94388 60.9454 8.94388H64.5432V8.73525C64.5432 7.76207 64.252 7.01483 63.6696 6.49327C63.0875 5.97195 62.2228 5.71116 61.0759 5.71116C60.2938 5.71116 59.5248 5.83302 58.7686 6.07626C58.0127 6.31949 57.374 6.65838 56.8527 7.09294L55.5752 4.72068C56.3052 4.16451 57.1829 3.7386 58.2082 3.44345C59.2338 3.14782 60.3197 3 61.4669 3V3ZM61.0237 14.8875C61.8404 14.8875 62.5662 14.7006 63.2005 14.3271C63.835 13.9534 64.2824 13.419 64.5432 12.7239V11.1075H61.1802C59.3031 11.1075 58.3647 11.7247 58.3647 12.9585C58.3647 13.5492 58.5993 14.0187 59.0685 14.3662C59.5376 14.7137 60.1897 14.8875 61.0237 14.8875ZM77.6298 11.4986H75.1011V17.0773H71.8426V3.15673H75.1011V8.78742H77.7079L81.827 3.15673H85.3203L80.2629 9.85625L85.6592 17.0773H81.827L77.6298 11.4986V11.4986ZM102.751 14.314L103.712 17.0591L100.18 17.0773H87.9531V3.15673H91.2118V14.314H97.8594V3.15673H101.118V14.314H102.751V14.314ZM119.158 10.1951C119.158 10.4211 119.141 10.7427 119.106 11.1597H108.183C108.374 12.1853 108.874 12.9975 109.682 13.5972C110.49 14.1969 111.494 14.4967 112.693 14.4967C114.222 14.4967 115.482 13.9924 116.473 12.9847L118.219 14.9918C117.594 15.7393 116.803 16.3039 115.847 16.6865C114.891 17.0687 113.814 17.26 112.615 17.26C111.085 17.26 109.738 16.9557 108.574 16.3474C107.409 15.7393 106.51 14.892 105.876 13.8058C105.241 12.7197 104.924 11.4899 104.924 10.1168C104.924 8.76121 105.233 7.54035 105.85 6.45421C106.466 5.36807 107.322 4.5207 108.417 3.91237C109.512 3.30429 110.746 3 112.119 3C113.475 3 114.687 3.29985 115.756 3.89928C116.825 4.4992 117.659 5.34186 118.259 6.42825C118.858 7.51439 119.158 8.77011 119.158 10.1951V10.1951ZM112.119 5.6071C111.076 5.6071 110.194 5.91559 109.473 6.53232C108.752 7.14955 108.313 7.97071 108.157 8.99604H116.056C115.916 7.98801 115.491 7.17105 114.778 6.54542C114.066 5.91979 113.179 5.6071 112.119 5.6071ZM122.729 3.15673H125.988V8.81361H133V3.15673H136.259V17.0773H133V11.5769H125.988V17.0773H122.729V3.15673V3.15673ZM151.676 5.91979H146.791V17.0773H143.532V5.91979H138.631V3.15673H151.656L151.676 5.91979V5.91979Z" fill="#2B2A29"/>
<path d="M189.156 32.9841H185.176L188.836 22.8496H192.816L189.156 32.9841Z" fill="#FF1864"/>
<path d="M55.5781 22.8546H58.4727V26.7762H62.8425V22.8546H65.7558V32.9018H62.8425V29.148H58.4727V32.9018H55.5781V22.8546ZM72.4415 22.7053C73.9978 22.7053 75.193 23.0756 76.0272 23.8164C76.8615 24.5572 77.2785 25.6745 77.2785 27.1685V32.9018H74.552V31.6505C74.004 32.5842 72.9831 33.0511 71.4891 33.0511C70.7174 33.0511 70.0483 32.9203 69.4817 32.6588C68.9152 32.3975 68.4826 32.0364 68.1837 31.5756C67.8851 31.1151 67.7356 30.5923 67.7356 30.0072C67.7356 29.0734 68.0873 28.3387 68.7908 27.8033C69.4943 27.2681 70.5805 27.0004 72.0495 27.0004H74.3651C74.3651 26.3657 74.1723 25.8767 73.7862 25.5346C73.4001 25.192 72.8212 25.0209 72.0495 25.0209C71.5141 25.0209 70.9881 25.105 70.4715 25.2731C69.9546 25.4409 69.5161 25.6683 69.1549 25.9546L68.1091 23.9192C68.6568 23.5331 69.3136 23.2343 70.0792 23.0227C70.845 22.8111 71.6325 22.7053 72.4415 22.7053V22.7053ZM72.2173 31.0904C72.7157 31.0904 73.1574 30.975 73.5435 30.7448C73.9294 30.5145 74.2032 30.1751 74.3651 29.7269V28.6998H72.3669C71.1717 28.6998 70.5743 29.0919 70.5743 29.8765C70.5743 30.25 70.7204 30.5454 71.013 30.7636C71.3057 30.9814 71.7071 31.0904 72.2173 31.0904V31.0904ZM91.0231 22.7053C91.9568 22.7053 92.8066 22.9201 93.5722 23.3495C94.3379 23.7791 94.9386 24.3827 95.3744 25.1609C95.8102 25.939 96.028 26.845 96.028 27.8782C96.028 28.9114 95.8102 29.8171 95.3744 30.5953C94.9386 31.3734 94.3379 31.9773 93.5722 32.4067C92.8066 32.8363 91.9568 33.0511 91.0231 33.0511C89.7407 33.0511 88.7324 32.6464 87.9978 31.8372V36.5248H85.0847V22.8546H87.867V24.0124C88.5891 23.1411 89.6411 22.7053 91.0231 22.7053V22.7053ZM90.5189 30.6608C91.2659 30.6608 91.8791 30.4087 92.3584 29.9044C92.8377 29.4001 93.0775 28.7248 93.0775 27.8782C93.0775 27.0316 92.8377 26.3563 92.3584 25.852C91.8791 25.3477 91.2659 25.0956 90.5189 25.0956C89.7719 25.0956 89.1588 25.3477 88.6795 25.852C88.2002 26.3563 87.9605 27.0316 87.9605 27.8782C87.9605 28.7248 88.2002 29.4001 88.6795 29.9044C89.1588 30.4087 89.7719 30.6608 90.5189 30.6608ZM107.831 27.9155C107.831 27.9528 107.812 28.2144 107.775 28.6998H100.174C100.311 29.3223 100.635 29.8142 101.145 30.1751C101.655 30.5362 102.29 30.7169 103.05 30.7169C103.573 30.7169 104.037 30.639 104.441 30.4833C104.846 30.3276 105.222 30.0819 105.571 29.7457L107.121 31.4263C106.175 32.5095 104.793 33.0511 102.975 33.0511C101.842 33.0511 100.84 32.8301 99.9686 32.3881C99.0968 31.9462 98.4247 31.3329 97.9516 30.5486C97.4785 29.7642 97.2419 28.8741 97.2419 27.8782C97.2419 26.8946 97.4755 26.0077 97.9422 25.217C98.4091 24.4265 99.0503 23.8102 99.8658 23.3683C100.681 22.926 101.593 22.7053 102.602 22.7053C103.585 22.7053 104.475 22.9169 105.272 23.3401C106.069 23.7635 106.695 24.3704 107.149 25.1609C107.603 25.9516 107.831 26.8697 107.831 27.9155V27.9155ZM102.62 24.909C101.96 24.909 101.407 25.0956 100.958 25.4691C100.51 25.8426 100.236 26.353 100.136 27.0004H105.085C104.986 26.3657 104.712 25.8582 104.264 25.4785C103.816 25.0988 103.268 24.909 102.62 24.909ZM116.459 27.6728C117.056 27.8594 117.52 28.1459 117.85 28.5318C118.18 28.9176 118.345 29.3784 118.345 29.9138C118.345 30.5486 118.127 31.1057 117.691 31.585C117.255 32.0646 116.658 32.4349 115.898 32.6964C115.139 32.9577 114.28 33.0884 113.321 33.0884C112.537 33.0884 111.765 33.0076 111.006 32.8457C110.246 32.6838 109.542 32.441 108.895 32.1175L109.679 30.0819C110.738 30.5923 111.908 30.8474 113.19 30.8474C113.875 30.8474 114.414 30.7448 114.806 30.5394C115.198 30.334 115.394 30.0443 115.394 29.6708C115.394 29.3472 115.257 29.1015 114.983 28.9332C114.709 28.7651 114.311 28.6813 113.788 28.6813H111.734V26.8697H113.527C114.037 26.8697 114.429 26.7888 114.703 26.6269C114.977 26.4653 115.114 26.2285 115.114 25.9173C115.114 25.5934 114.943 25.3445 114.6 25.1703C114.258 24.996 113.769 24.909 113.134 24.909C112.163 24.909 111.105 25.1391 109.959 25.5999L109.25 23.5828C110.644 22.973 112.001 22.668 113.321 22.668C114.23 22.668 115.042 22.7799 115.758 23.0039C116.474 23.2281 117.037 23.5549 117.448 23.9845C117.859 24.4139 118.065 24.9149 118.065 25.4879C118.065 25.961 117.921 26.3874 117.635 26.7671C117.349 27.1468 116.956 27.4486 116.459 27.6728V27.6728ZM130.521 22.8546L125.982 33.518C125.522 34.6759 124.952 35.4913 124.274 35.9645C123.595 36.4376 122.777 36.6741 121.818 36.6741C121.295 36.6741 120.778 36.5931 120.268 36.4311C119.758 36.2695 119.34 36.0453 119.017 35.759L120.081 33.6861C120.306 33.8854 120.564 34.0408 120.856 34.1531C121.149 34.265 121.438 34.3209 121.725 34.3209C122.123 34.3209 122.447 34.2245 122.696 34.0317C122.945 33.8384 123.169 33.518 123.368 33.0699L123.405 32.9765L119.054 22.8546H122.061L124.881 29.6708L127.719 22.8546H130.521V22.8546ZM140.848 22.8546V32.9018H137.934V25.2449H134.76L134.666 27.0192C134.616 28.3387 134.492 29.4345 134.293 30.3058C134.094 31.1774 133.77 31.8621 133.322 32.3602C132.874 32.858 132.251 33.1072 131.454 33.1072C131.031 33.1072 130.527 33.0323 129.942 32.883L130.091 30.4927C130.29 30.5174 130.433 30.53 130.521 30.53C130.956 30.53 131.283 30.3711 131.501 30.0537C131.719 29.7363 131.865 29.3319 131.94 28.8398C132.015 28.3481 132.07 27.6978 132.108 26.8885L132.257 22.8546H140.848V22.8546ZM149.083 26.0666C150.39 26.0792 151.393 26.3748 152.09 26.9537C152.787 27.5326 153.136 28.3513 153.136 29.4095C153.136 30.5174 152.747 31.3796 151.969 31.9961C151.19 32.6121 150.098 32.9203 148.691 32.9203L143.649 32.9018V22.8546H146.543V26.0666H149.083V26.0666ZM148.43 30.8474C148.99 30.86 149.419 30.7416 149.718 30.4927C150.017 30.2435 150.167 29.87 150.167 29.3722C150.167 28.8865 150.02 28.5318 149.728 28.3076C149.435 28.0836 149.002 27.9652 148.43 27.9528L146.543 27.9341V30.8474H148.43V30.8474ZM162.473 25.2449H159.074V32.9018H156.18V25.2449H152.781V22.8546H162.473V25.2449V25.2449ZM167.926 22.7053C169.483 22.7053 170.677 23.0756 171.512 23.8164C172.346 24.5572 172.763 25.6745 172.763 27.1685V32.9018H170.036V31.6505C169.489 32.5842 168.468 33.0511 166.974 33.0511C166.202 33.0511 165.533 32.9203 164.966 32.6588C164.4 32.3975 163.967 32.0364 163.668 31.5756C163.37 31.1151 163.22 30.5923 163.22 30.0072C163.22 29.0734 163.572 28.3387 164.275 27.8033C164.979 27.2681 166.065 27.0004 167.534 27.0004H169.85C169.85 26.3657 169.657 25.8767 169.271 25.5346C168.885 25.192 168.306 25.0209 167.534 25.0209C166.999 25.0209 166.473 25.105 165.956 25.2731C165.439 25.4409 165.001 25.6683 164.639 25.9546L163.594 23.9192C164.141 23.5331 164.798 23.2343 165.564 23.0227C166.329 22.8111 167.117 22.7053 167.926 22.7053V22.7053ZM167.702 31.0904C168.2 31.0904 168.642 30.975 169.028 30.7448C169.414 30.5145 169.688 30.1751 169.85 29.7269V28.6998H167.852C166.656 28.6998 166.059 29.0919 166.059 29.8765C166.059 30.25 166.205 30.5454 166.497 30.7636C166.79 30.9814 167.192 31.0904 167.702 31.0904V31.0904ZM183.303 25.2449H180.345V32.9018H177.45V25.2449H174.051V22.8546H184.184L183.303 25.2449Z" fill="#2B2A29"/>
</svg>
